<?xml version="1.0" encoding="UTF-8"?>
<!-- Generator: Adobe Illustrator 26.2.1, SVG Export Plug-In . SVG Version: 6.00 Build 0)  -->
<svg version="1.1" id="Layer_1" xmlns="http://www.w3.org/2000/svg" xmlns:xlink="http://www.w3.org/1999/xlink" x="0px" y="0px" viewBox="0 0 38 37" style="enable-background:new 0 0 38 37;" xml:space="preserve">
<style type="text/css">
	.st0{fill:#612D0F;}
	.st1{fill:#F39D52;}
</style>
<path id="Star-1" class="st0" d="M19,0l5.9,11.9L38,13.8l-9.5,9.3l2.2,13.1L19,30L7.2,36.2l2.2-13.1L0,13.8l13.1-1.9L19,0z   M23.5,13.7L19,4.5l-4.5,9.2L4.3,15.2l7.4,7.2L9.9,32.5l9.1-4.8l9.1,4.8l-1.7-10.1l7.4-7.2L23.5,13.7z"/>
<polygon id="Path" class="st1" points="23.5,13.7 19,4.5 14.5,13.7 4.3,15.2 11.6,22.4 9.9,32.5 19,27.7 28.1,32.5 26.4,22.4   33.7,15.2 "/>
</svg>